<svg width="24" height="24" xmlns="http://www.w3.org/2000/svg"><g fill="none" fill-rule="evenodd"><path d="M0 0h24v24H0z"/><g transform="translate(3 3)"><rect fill="#FFF" fill-rule="nonzero" width="18" height="18" rx="2"/><path d="M5.017 5h9.032v9H5.017z"/><g fill-rule="nonzero"><path d="M15.024 9.365c0-.424-.038-.832-.11-1.223h-5.65v2.313h3.229a2.75 2.75 0 0 1-1.197 1.805v1.5h1.939c1.134-1.041 1.789-2.574 1.789-4.395z" fill="#4285F4"/><path d="M9.264 15.208c1.62 0 2.978-.535 3.97-1.448l-1.938-1.5c-.538.358-1.225.57-2.032.57-1.563 0-2.886-1.052-3.357-2.465H3.902v1.55a6 6 0 0 0 5.362 3.293z" fill="#34A853"/><path d="M5.907 10.365a3.583 3.583 0 0 1-.189-1.136c0-.394.069-.777.189-1.136V6.544H3.902a5.96 5.96 0 0 0 0 5.37l2.005-1.549z" fill="#FBBC05"/><path d="M9.264 5.628c.88 0 1.672.302 2.294.894l1.72-1.715C12.24 3.842 10.881 3.25 9.264 3.25a6 6 0 0 0-5.362 3.294l2.005 1.55C6.378 6.68 7.7 5.627 9.264 5.627z" fill="#EA4335"/></g></g></g></svg>