<svg height="512" viewBox="0 0 256 256" width="512" xmlns="http://www.w3.org/2000/svg"><path d="m75.584 144.726a36.217 36.217 0 1 0 -38.284 58.389 5.793 5.793 0 0 1 3.422 2.913l7.656 15.226 7.656-15.226a5.8 5.8 0 0 1 3.422-2.913 36.217 36.217 0 0 0 16.126-58.389z" fill="#13bf6d"/><circle cx="48.38" cy="241.773" fill="#f0c020" r="9.75"/><path d="m212.251 58.744a36.217 36.217 0 1 0 -38.282 58.389 5.791 5.791 0 0 1 3.421 2.913l7.657 15.226 7.656-15.226a5.706 5.706 0 0 1 2.564-2.557c1.245-.655 10.262-2.613 18-12.138a36.36 36.36 0 0 0 -1.016-46.607z" fill="#13bf6d"/><circle cx="185.047" cy="155.79" fill="#f0c020" r="9.75"/><path d="m123.267 16.786a36.217 36.217 0 1 0 -38.282 58.389 5.785 5.785 0 0 1 3.421 2.913l7.657 15.225 7.656-15.225a5.791 5.791 0 0 1 3.422-2.913 36.217 36.217 0 0 0 16.126-58.389z" fill="#13bf6d"/><circle cx="96.063" cy="113.832" fill="#f0c020" r="9.75"/><g fill="#76ffba"><path d="m19.561 177.355c-.105-.351-.2-.7-.3-1.051a2.5 2.5 0 0 1 4.838-1.266c.076.291.158.583.246.874a2.5 2.5 0 0 1 -4.787 1.443zm1.09-9.113a2.5 2.5 0 0 1 -2.224-2.749 30.239 30.239 0 0 1 29-26.944 29.9 29.9 0 0 1 22.233 8.8 2.5 2.5 0 1 1 -3.536 3.535 24.937 24.937 0 0 0 -18.542-7.338 25.217 25.217 0 0 0 -24.182 22.472 2.5 2.5 0 0 1 -2.749 2.224z"/><path d="m156.228 91.372c-.105-.35-.205-.7-.3-1.05a2.5 2.5 0 0 1 4.838-1.267c.076.292.158.583.246.875a2.5 2.5 0 1 1 -4.787 1.442zm1.09-9.113a2.5 2.5 0 0 1 -2.224-2.749 30.237 30.237 0 0 1 29-26.943 29.835 29.835 0 0 1 22.234 8.8 2.5 2.5 0 1 1 -3.528 3.533 24.87 24.87 0 0 0 -18.542-7.338 25.215 25.215 0 0 0 -24.186 22.471 2.5 2.5 0 0 1 -2.754 2.226z"/><path d="m67.244 49.414q-.159-.525-.3-1.051a2.5 2.5 0 0 1 4.841-1.263c.076.291.158.583.246.874a2.5 2.5 0 0 1 -4.787 1.443zm1.091-9.114a2.5 2.5 0 0 1 -2.224-2.749 30.236 30.236 0 0 1 29-26.943 29.869 29.869 0 0 1 22.232 8.8 2.5 2.5 0 1 1 -3.535 3.535 24.921 24.921 0 0 0 -18.542-7.338 25.214 25.214 0 0 0 -24.185 22.47 2.5 2.5 0 0 1 -2.746 2.225z"/></g><path d="m135.789 158.271h37.263a12.25 12.25 0 0 0 23.993 0h25.744a23.5 23.5 0 1 0 0-47h-11.689a39.709 39.709 0 0 0 4.112-4.341 38.884 38.884 0 0 0 -1.081-49.84 2.577 2.577 0 0 0 -3.53-.22 2.5 2.5 0 0 0 -.22 3.53 33.858 33.858 0 0 1 .94 43.38c-7.3 8.982-15.558 10.624-17.21 11.491l-.01.009a8.116 8.116 0 0 0 -3.63 3.65l-5.42 10.781-5.42-10.79a8.4 8.4 0 0 0 -4.9-4.17 33.721 33.721 0 0 1 20.21-64.341 2.524 2.524 0 0 0 3.12-1.659 2.5 2.5 0 0 0 -1.66-3.121 38.723 38.723 0 0 0 -41.52 61.291 39.988 39.988 0 0 0 4.122 4.35h-50.968a12.242 12.242 0 1 0 .028 5h57.811a38.242 38.242 0 0 0 7.335 3.239 3.373 3.373 0 0 1 1.95 1.65l7.649 15.23a2.5 2.5 0 0 0 4.471 0l7.659-15.219a3.235 3.235 0 0 1 1.44-1.44l.05-.031a43.63 43.63 0 0 0 7.8-3.429h18.563a18.5 18.5 0 1 1 0 37h-25.757a12.248 12.248 0 0 0 -23.972 0h-37.273a22.5 22.5 0 1 0 0 45h43.729a20.5 20.5 0 0 1 0 41h-119.148a12.25 12.25 0 1 0 0 5h119.148a25.5 25.5 0 0 0 0-51h-43.729a17.5 17.5 0 1 1 0-35zm-39.731-37.191a7.25 7.25 0 1 1 7.25-7.25 7.281 7.281 0 0 1 -7.25 7.25zm88.99 27.461a7.25 7.25 0 1 1 -7.25 7.25 7.278 7.278 0 0 1 7.25-7.25zm-136.67 100.48a7.25 7.25 0 1 1 7.25-7.25 7.275 7.275 0 0 1 -7.25 7.25z"/><path d="m69.4 136.11a2.563 2.563 0 0 0 -3.46.74 2.5 2.5 0 1 0 3.46-.74z"/><path d="m19.3 143.07a38.726 38.726 0 0 0 17.239 62.43 3.252 3.252 0 0 1 1.95 1.649l7.659 15.23a2.509 2.509 0 0 0 4.471 0l7.649-15.23a3.272 3.272 0 0 1 1.95-1.649 38.727 38.727 0 0 0 17.241-62.43 2.578 2.578 0 0 0 -3.531-.22 2.508 2.508 0 0 0 -.219 3.53 33.877 33.877 0 0 1 .95 43.38 33.379 33.379 0 0 1 -15.971 10.971 8.28 8.28 0 0 0 -4.89 4.179l-5.42 10.781-5.419-10.791a8.354 8.354 0 0 0 -4.9-4.169 33.429 33.429 0 0 1 -15.959-10.971 33.725 33.725 0 0 1 36.17-53.37 2.5 2.5 0 1 0 1.471-4.78 38.721 38.721 0 0 0 -40.441 11.46z"/><path d="m202.608 50.87a2.494 2.494 0 0 0 .74 3.46h.01a2.483 2.483 0 0 0 3.44-.74 2.509 2.509 0 0 0 -.73-3.46 2.559 2.559 0 0 0 -3.46.74z"/><path d="m95.675 60.461a2.5 2.5 0 0 0 2.5-2.5v-3.228h.789a8.4 8.4 0 0 0 0-16.809h-6.576a3.4 3.4 0 1 1 .017-6.808h6.317a4.915 4.915 0 0 1 4.054 2.332 2.473 2.473 0 0 0 3.433.7 2.527 2.527 0 0 0 .731-3.472 9.791 9.791 0 0 0 -8.2-4.564h-.566v-3.225a2.5 2.5 0 0 0 -5 0v3.229h-.789a8.4 8.4 0 0 0 0 16.808h6.575a3.4 3.4 0 1 1 -.043 6.809h-6.862a4.816 4.816 0 0 1 -3.65-1.777 2.5 2.5 0 1 0 -3.842 3.2 9.814 9.814 0 0 0 7.474 3.577h1.138v3.228a2.5 2.5 0 0 0 2.5 2.5z"/><path d="m66.989 15.13a38.728 38.728 0 0 0 17.229 62.431 3.266 3.266 0 0 1 1.951 1.65l7.66 15.23a2.507 2.507 0 0 0 4.469 0l7.651-15.23a3.316 3.316 0 0 1 1.949-1.65 38.716 38.716 0 0 0 17.24-62.431 2.576 2.576 0 0 0 -3.53-.22 2.5 2.5 0 0 0 -.23 3.52c.01 0 .01.011.01.011a33.878 33.878 0 0 1 .95 43.379 33.491 33.491 0 0 1 -15.96 10.971 8.292 8.292 0 0 0 -4.9 4.179l-5.42 10.781-5.42-10.79a8.308 8.308 0 0 0 -4.9-4.17 33.494 33.494 0 0 1 -15.96-10.98 33.716 33.716 0 0 1 36.18-53.35 2.537 2.537 0 0 0 3.12-1.67 2.511 2.511 0 0 0 -1.66-3.12 38.7 38.7 0 0 0 -40.429 11.459z"/><path d="m114.358 12.37a2.5 2.5 0 0 0 2.721-4.2 2.562 2.562 0 0 0 -3.46.739 2.516 2.516 0 0 0 .739 3.461z"/><path d="m187.947 79.882h-6.575a3.4 3.4 0 1 1 .016-6.808h6.318a4.868 4.868 0 0 1 4.006 2.259 2.5 2.5 0 1 0 4.211-2.695 9.8 9.8 0 0 0 -8.2-4.564h-.564v-3.228a2.5 2.5 0 0 0 -5 0v3.228h-.79a8.4 8.4 0 0 0 0 16.808h6.575a3.4 3.4 0 1 1 -.017 6.809h-6.89a4.817 4.817 0 0 1 -3.652-1.778 2.5 2.5 0 0 0 -3.842 3.2 9.819 9.819 0 0 0 7.475 3.577h1.139v3.23a2.5 2.5 0 0 0 5 0v-3.229h.789a8.4 8.4 0 0 0 0-16.809z"/><path d="m51.28 165.865h-6.574a3.4 3.4 0 1 1 .016-6.809h6.318a4.869 4.869 0 0 1 4.005 2.259 2.5 2.5 0 1 0 4.211-2.695 9.8 9.8 0 0 0 -8.2-4.564h-.565v-3.228a2.5 2.5 0 0 0 -5 0v3.228h-.726a8.4 8.4 0 1 0 -.061 16.809h6.576a3.4 3.4 0 1 1 -.043 6.808h-6.864a4.818 4.818 0 0 1 -3.651-1.776 2.5 2.5 0 1 0 -3.842 3.2 9.812 9.812 0 0 0 7.474 3.577h1.139v3.226a2.5 2.5 0 0 0 5 0v-3.228h.789a8.4 8.4 0 0 0 0-16.808z"/></svg>